# AST/ASF file generated using VICON BodyLanguage
# -----------------------------------------------
:version 1.10
:name VICON
:units
  mass 1.0
  length 0.45
  angle deg
:documentation
   .ast/.asf automatically generated from VICON data using
   VICON BodyBuilder and BodyLanguage model FoxedUp or BRILLIANT.MOD
:root
   order TX TY TZ RX RY RZ
   axis XYZ
   position 0 0 0  
   orientation 0 0 0 
:bonedata
  begin
     id 1 
     name lhipjoint
     direction 0.630082 -0.636569 0.44472 
     length 2.82754 
     axis 0 0 0  XYZ
  end
  begin
     id 2 
     name lfemur
     direction 0.34202 -0.939693 0  
     length 7.26371  
     axis 0 0 20  XYZ
    dof rx ry rz
    limits (-160.0 20.0)
           (-70.0 70.0)
           (-60.0 70.0)
  end
  begin
     id 3 
     name ltibia
     direction 0.34202 -0.939693 0   
     length 7.88616   
     axis 0 0 20   XYZ
    dof rx
    limits (-10.0 170.0)
  end
  begin
     id 4 
     name lfoot
     direction 0.0603448 -0.165796 0.984312   
     length 1.77861   
     axis -90 7.62852e-016 20   XYZ
    dof rx rz
    limits (-45.0 90.0)
           (-70.0 20.0)
  end
  begin
     id 5 
     name ltoes
     direction 1.53577e-011 -4.21876e-011 1   
     length 0.902235   
     axis -90 7.62852e-016 20   XYZ
    dof rx
    limits (-90.0 20.0)
  end
  begin
     id 6 
     name rhipjoint
     direction -0.656778 -0.61817 0.431866   
     length 2.9117  
     axis 0 0 0  XYZ 
  end
  begin
     id 7 
     name rfemur
     direction -0.34202 -0.939693 0   
     length 6.81603   
     axis 0 0 -20   XYZ
    dof rx ry rz
    limits (-160.0 20.0)
           (-70.0 70.0)
           (-70.0 60.0)
  end
  begin
     id 8 
     name rtibia
     direction -0.34202 -0.939693 0   
     length 8.05997   
     axis 0 0 -20   XYZ
    dof rx
    limits (-10.0 170.0)
 end
 begin
     id 9 
     name rfoot
     direction -0.0862404 -0.236944 0.967688   
     length 1.84899  
     axis -90 -7.62852e-016 -20   XYZ
    dof rx rz
    limits (-45.0 90.0)
           (-20.0 70.0)
  end
  begin
     id 10 
     name rtoes
     direction -1.53561e-011 -4.21798e-011 1   
     length 0.931579   
     axis -90 -7.62852e-016 -20   XYZ
    dof rx
    limits (-90.0 20.0)
  end
  begin
     id 11 
     name lowerback
     direction -0.0110203 0.991769 -0.127564   
     length 2.05686   
     axis 0 0 0   XYZ
    dof rx ry rz
    limits (-20.0 45.0)
           (-30.0 30.0)
           (-30.0 30.0)
  end
  begin
     id 12 
     name upperback
     direction 0.0109719 0.99993 -0.00432479   
     length 2.06234   
     axis 0 0 0   XYZ
    dof rx ry rz
    limits (-20.0 45.0)
           (-30.0 30.0)
           (-30.0 30.0)
  end
  begin
     id 13 
     name thorax
     direction 0.0173308 0.998351 0.0547306   
     length 2.09856   
     axis 0 0 0   XYZ
    dof rx ry rz
    limits (-20.0 45.0)
           (-30.0 30.0)
           (-30.0 30.0)
  end
  begin
     id 14 
     name lowerneck
     direction -0.0311736 0.989033 0.144366   
     length 1.98151   
     axis 0 0 0   XYZ
    dof rx ry rz
    limits (-20.0 45.0)
           (-30.0 30.0)
           (-30.0 30.0)
  end
  begin
     id 15 
     name upperneck
     direction 0.0421057 0.975772 -0.214698   
     length 2.01457   
     axis 0 0 0   XYZ
    dof rx ry rz
    limits (-20.0 45.0)
           (-30.0 30.0)
           (-30.0 30.0)
  end
  begin
     id 16
     name head
     direction 0.0136911 0.995958 -0.0887718  
     length 2.03562  
     axis 0 0 0   XYZ
    dof rx ry rz
    limits (-20.0 45.0)
           (-30.0 30.0)
           (-30.0 30.0)
  end
  begin
     id 17 
     name lclavicle
     direction 0.915335 0.396201 0.0720134  
     length 4.16217  
     axis 0 0 0   XYZ
    dof ry rz
    limits (-20.0 10.0)
           (0.0 20.0)
  end
  begin
     id 18 
     name lhumerus
     direction 1 -4.48965e-011 6.383e-018   
     length 4.93042   
     axis -180 -30 -90   XYZ
    dof rx ry rz
    limits (-60.0 90.0)
           (-90.0 90.0)
           (-90.0 90.0)
  end
  begin
     id 19
     name lradius
     direction 1 -4.48972e-011 8.8689e-027   
     length 3.68177   
     axis -180 -30 -90   XYZ
    dof rx
    limits (-10.0 170.0)
  end
  begin
     id 20
     name lwrist
     direction 1 -4.48953e-011 1.17971e-026   
     length 1.84089   
     axis -7.69454e-015 90 90   XYZ
    dof ry
    limits (-180.0 0.0)
 end
  begin
     id 21 
     name lhand
     direction 1 -4.49027e-011 2.35802e-026   
     length 0.721479   
     axis -1.50533e-014 90 90   XYZ
    dof rx rz
    limits (-90.0 90.0)
           (-45.0 45.0)
  end
  begin
     id 22 
     name lfingers
     direction 1 -4.48915e-011 4.72027e-026   
     length 0.581675   
     axis -3.01059e-014 90 90   XYZ
    dof rx
    limits (0.0 90.0)
  end
  begin
     id 23
     name lthumb
     direction 0.707107 -6.34948e-011 0.707107   
     length 0.835172   
     axis -90 45 -5.12164e-014   XYZ
    dof rx rz
    limits (-45.0 45.0)
           (-45.0 45.0)
  end
  begin
     id 24 
     name rclavicle
     direction -0.882781 0.469197 0.0234974   
     length 3.95647  
     axis 0 0 0   XYZ 
    dof ry rz
    limits (-10.0 20.0)
           (-20.0 0.0)
  end
  begin
     id 25 
     name rhumerus
     direction -1 -4.48965e-011 -1.54906e-018  
     length 5.07905   
     axis -180 30 90   XYZ
    dof rx ry rz
    limits (-90.0 60.0)
           (-90.0 90.0)
           (-90.0 90.0)
  end
  begin
     id 26 
     name rradius
     direction -1 -4.48972e-011 5.47489e-027   
     length 3.54394   
     axis -180 30 90   XYZ
    dof rx
    limits (-10.0 170.0)
  end
  begin
     id 27 
     name rwrist
     direction -1 -4.48955e-011 1.17969e-026   
     length 1.77197   
     axis -7.69454e-015 -90 -90   XYZ
    dof ry
    limits (-180.0 0.0)
  end
  begin
     id 28
     name rhand
     direction -1 -4.48982e-011 2.35888e-026   
     length 0.681156   
     axis -1.50533e-014 -90 -90   XYZ
    dof rx rz
    limits (-90.0 90.0)
           (-45.0 45.0)
  end
  begin
     id 29
     name rfingers
     direction -1 -4.48955e-011 4.71877e-026   
     length 0.549165   
     axis -3.01059e-014 -90 -90   XYZ
    dof rx
    limits (0.0 90.0)
  end
  begin
     id 30
     name rthumb
     direction -0.707107 -6.3491e-011 0.707107   
     length 0.788495   
     axis -90 -45 5.12164e-014   XYZ
    dof rx rz
    limits (-45.0 45.0)
           (-45.0 45.0)
  end
:hierarchy
  begin
    root lhipjoint rhipjoint lowerback
    lhipjoint lfemur
    lfemur ltibia
    ltibia lfoot
    lfoot ltoes
    rhipjoint rfemur
    rfemur rtibia
    rtibia rfoot
    rfoot rtoes
    lowerback upperback
    upperback thorax
    thorax lowerneck lclavicle rclavicle
    lowerneck upperneck
    upperneck head
    lclavicle lhumerus
    lhumerus lradius
    lradius lwrist
    lwrist lhand lthumb
    lhand lfingers
    rclavicle rhumerus
    rhumerus rradius
    rradius rwrist
    rwrist rhand rthumb
    rhand rfingers
  end

#!OML:ASF H:\Bending\Project 1\Capture day 1\Session 1\Subject.ASF
:FULLY-SPECIFIED
:DEGREES
160
root -10.0288 17.9995 -16.5373 -173.108 85.5134 -178.055
lowerback 5.49611 -0.00459033 0.141223
upperback -3.52417 0.158161 1.87516
thorax -6.77057 0.134818 1.8618
lowerneck -22.8795 -5.25188 -8.70424
upperneck 31.7888 -5.478 4.9266
head 15.4232 -2.46781 2.53474
rclavicle -1.00697e-014 -3.97569e-015
rhumerus -31.8568 21.612 -90.4826
rradius 92.9614
rwrist 7.20736
rhand -30.1226 -39.4957
rfingers 7.12502
rthumb -3.43585 -69.4478
lclavicle -1.00697e-014 -3.97569e-015
lhumerus -30.8364 -31.1595 100.917
lradius 93.048
lwrist 31.8521
lhand -41.0986 23.2596
lfingers 7.12502
lthumb -14.0267 52.7663
rfemur 6.29226 -2.13733 14.9007
rtibia -1.74931e-014
rfoot -10.5897 -18.2325
rtoes 2.70921
lfemur -7.03243 -13.0698 -13.337
ltibia 20.8112
lfoot -21.1289 4.60349
ltoes 14.372
161
root -10.0127 17.993 -16.5331 -173.656 85.5489 -178.461
lowerback 5.21414 -0.0070508 0.028538
upperback -3.64868 0.146492 1.86478
thorax -6.73985 0.135683 1.91516
lowerneck -23.068 -5.2734 -8.65086
upperneck 32.1073 -5.46513 4.79037
head 15.6085 -2.47092 2.47606
rclavicle -1.35919e-014 -2.70347e-014
rhumerus -31.3782 21.2753 -90.3474
rradius 93.1873
rwrist 7.1872
rhand -29.865 -39.8494
rfingers 7.12502
rthumb -3.18712 -69.8053
lclavicle -1.35919e-014 -2.70347e-014
lhumerus -30.3412 -30.9299 100.826
lradius 93.1415
lwrist 32.3515
lhand -40.8924 22.7952
lfingers 7.12502
lthumb -13.8279 52.3156
rfemur 6.50263 -2.0934 14.8766
rtibia 0
rfoot -10.5981 -18.2661
rtoes 2.37932
lfemur -6.83643 -13.011 -13.4061
ltibia 20.8844
lfoot -21.1925 4.55021
ltoes 14.18
162
root -9.99784 17.9878 -16.5295 -174.138 85.5306 -178.823
lowerback 4.94815 -0.0308199 -0.052835
upperback -3.7701 0.109621 1.8538
thorax -6.71403 0.122785 1.95297
lowerneck -23.2534 -5.30719 -8.6364
upperneck 32.408 -5.47304 4.70412
head 15.7919 -2.48057 2.44043
rclavicle 1.12624e-014 -1.19271e-014
rhumerus -30.7994 20.9871 -90.1617
rradius 93.3224
rwrist 7.18763
rhand -29.5744 -40.1746
rfingers 7.12502
rthumb -2.90645 -70.1345
lclavicle 1.12624e-014 -1.19271e-014
lhumerus -29.8273 -30.6979 100.736
lradius 93.2031
lwrist 32.8772
lhand -40.6779 22.5107
lfingers 7.12502
lthumb -13.6212 52.045
rfemur 6.67028 -2.10427 14.8691
rtibia -1.11319e-014
rfoot -10.4458 -18.3549
rtoes 1.39113
lfemur -6.69249 -12.9709 -13.4551
ltibia 20.9622
lfoot -21.2237 4.48412
ltoes 13.9595
163
root -9.98478 17.9836 -16.5269 -174.466 85.4691 -179.052
lowerback 4.70043 -0.0678871 -0.0897009
upperback -3.89087 0.0589611 1.83964
thorax -6.69737 0.10107 1.96374
lowerneck -23.4111 -5.35263 -8.6642
upperneck 32.6815 -5.50177 4.66902
head 15.9633 -2.49715 2.42927
rclavicle -2.06115e-014 5.56597e-015
rhumerus -30.1193 20.7602 -89.9219
rradius 93.3692
rwrist 7.14463
rhand -29.2623 -40.4752
rfingers 7.12502
rthumb -2.60505 -70.4391
lclavicle -2.06115e-014 5.56597e-015
lhumerus -29.2794 -30.46 100.648
lradius 93.2233
lwrist 33.3738
lhand -40.5247 22.383
lfingers 7.12502
lthumb -13.4735 51.9271
rfemur 6.79646 -2.15889 14.8804
rtibia 2.22639e-014
rfoot -10.1497 -18.4817
rtoes -0.123301
lfemur -6.59617 -12.9599 -13.4845
ltibia 21.0444
lfoot -21.2375 4.43139
ltoes 13.7377
164
root -9.97388 17.9801 -16.5255 -174.593 85.4011 -179.09
lowerback 4.47997 -0.104021 -0.0839654
upperback -4.00644 0.0129777 1.82225
thorax -6.69099 0.0796049 1.9466
lowerneck -23.5318 -5.40376 -8.72312
upperneck 32.9222 -5.54326 4.6727
head 16.1159 -2.51779 2.43726
rclavicle -1.54058e-015 5.56597e-015
rhumerus -29.3924 20.5584 -89.6492
rradius 93.3741
rwrist 7.04147
rhand -28.9597 -40.7844
rfingers 7.12502
rthumb -2.31283 -70.7516
lclavicle -1.54058e-015 5.56597e-015
lhumerus -28.6696 -30.2026 100.554
lradius 93.1903
lwrist 33.7886
lhand -40.4678 22.3665
lfingers 7.12502
lthumb -13.4187 51.9143
rfemur 6.89532 -2.21933 14.9065
rtibia 1.59028e-014
rfoot -9.79182 -18.606
rtoes -1.74614
lfemur -6.52566 -12.9754 -13.5006
ltibia 21.1327
lfoot -21.2564 4.41998
ltoes 13.5342
165
root -9.96535 17.9766 -16.5246 -174.509 85.3711 -178.908
lowerback 4.29783 -0.125671 -0.0513451
upperback -4.10663 -0.0117998 1.80432
thorax -6.69118 0.067116 1.9116
lowerneck -23.6228 -5.45144 -8.78794
upperneck 33.1265 -5.58564 4.69242
head 16.2459 -2.53775 2.45255
rclavicle -1.88845e-015 4.37326e-015
rhumerus -28.6231 20.4065 -89.3582
rradius 93.3399
rwrist 6.8644
rhand -28.6742 -41.1337
rfingers 7.12502
rthumb -2.03705 -71.1037
lclavicle -1.88845e-015 4.37326e-015
lhumerus -27.9671 -29.9062 100.437
lradius 93.0938
lwrist 34.0996
lhand -40.4885 22.4184
lfingers 7.12502
lthumb -13.4387 51.9648
rfemur 6.99087 -2.23985 14.9413
rtibia 3.18055e-015
rfoot -9.49308 -18.6851
rtoes -2.92587
lfemur -6.4503 -12.9985 -13.51
ltibia 21.2291
lfoot -21.298 4.46051
ltoes 13.3542
166
root -9.95905 17.9728 -16.5231 -174.222 85.4034 -178.504
lowerback 4.16057 -0.127939 -0.0154745
upperback -4.18041 -0.0108717 1.79006
thorax -6.69018 0.0668055 1.8761
lowerneck -23.6997 -5.48674 -8.82769
upperneck 33.2895 -5.61863 4.70349
head 16.3505 -2.55249 2.46083
rclavicle 7.70291e-015 7.15625e-015
rhumerus -27.8241 20.3074 -89.0667
rradius 93.2731
rwrist 6.66163
rhand -28.4041 -41.5543
rfingers 7.12502
rthumb -1.77622 -71.5267
lclavicle 7.70291e-015 7.15625e-015
lhumerus -27.1519 -29.5545 100.271
lradius 92.9274
lwrist 34.33
lhand -40.5194 22.5165
lfingers 7.12502
lthumb -13.4685 52.061
rfemur 7.10884 -2.19479 14.9801
rtibia -1.27222e-014
rfoot -9.36366 -18.6944
rtoes -3.21342
lfemur -6.34599 -12.999 -13.5138
ltibia 21.3338
lfoot -21.3618 4.5312
ltoes 13.1934
